<svg width="256" height="256" viewBox="0 0 256 256" fill="none"
    xmlns="http://www.w3.org/2000/svg">
    <rect x="4" y="4" width="248" height="248" rx="124" stroke="#FBBF24" stroke-width="8"/>
    <g filter="url(#filter0_d_2_22)">
        <path d="M154.711 83H194.316V88.5102H177.737V93.102H154.711V83Z" fill="#1E40AF"/>
        <path d="M205.368 98.6122V108.714H195.237V113.306H167.605V117.898H150.105V107.796H155.632V103.204H183.263V98.6122H205.368Z" fill="#1E40AF"/>
        <path d="M227.474 83H216.421V88.5102H205.368V93.102H210.895V98.6122H216.421V103.204H226.553V98.6122H233V88.5102H227.474V83Z" fill="#111827"/>
        <path d="M177.737 123.408H160.237V117.898H167.605V113.306H195.237V108.714H205.368V103.204H226.553V98.6122H233V113.306H205.368V117.898H177.737V123.408Z" fill="#BEF264"/>
        <path d="M45.1053 142.694H23V132.592H56.1579V128H83.7895V123.408H99.4474V132.592H94.8421V138.102H83.7895V142.694H116.947V148.204H133.526V152.796H155.632V157.388H183.263V162.898H199.842V157.388H210.895V167.49H205.368V173H172.211V167.49H144.579V162.898H122.474V157.388H93.9211V152.796H72.7368V148.204H45.1053V142.694Z" fill="#BEF264"/>
        <path d="M111.421 123.408H99.4474V132.592H104.974V137.184H99.4474V142.694H128V138.102H145.5V132.592H151.026V128H155.632V123.408H160.237V117.898H139.053V107.796H133.526V113.306H122.474V117.898H111.421V123.408Z" fill="#1E3A8A"/>
        <path d="M143.658 107.796V102.286H149.184V97.6939H154.711V93.102H161.158V98.6122H155.632V107.796H150.105H143.658Z" fill="#1E3A8A"/>
        <path d="M155.632 98.6122V103.204H183.263V98.6122H205.368V103.204H216.421V98.6122H210.895V93.102H205.368V88.5102H177.737V93.102H161.158V98.6122H155.632Z" fill="#FAFAFA"/>
        <path d="M139.053 107.796H150.105V117.898H139.053V107.796Z" fill="#111827"/>
        <path d="M144.579 83H154.711V93.102H144.579V83Z" fill="#111827"/>
    </g>
    <defs>
        <filter id="filter0_d_2_22" x="23" y="83" width="210" height="94" filterUnits="userSpaceOnUse" coloar-interpolation-filters="sRGB">
            <feFlood flood-opacity="0" result="BackgroundImageFix"/>
            <feColorMatrix in="SourceAlpha" type="matrix" values="0 0 0 0 0 0 0 0 0 0 0 0 0 0 0 0 0 0 127 0" result="hardAlpha"/>
            <feOffset dy="4"/>
            <feComposite in2="hardAlpha" operator="out"/>
            <feColorMatrix type="matrix" values="0 0 0 0 0 0 0 0 0 0 0 0 0 0 0 0 0 0 1 0"/>
            <feBlend mode="normal" in2="BackgroundImageFix" result="effect1_dropShadow_2_22"/>
            <feBlend mode="normal" in="SourceGraphic" in2="effect1_dropShadow_2_22" result="shape"/>
        </filter>
    </defs>
</svg>
