<svg width="95" height="95" version="1.1" viewBox="0 0 25.135 25.135" xmlns="http://www.w3.org/2000/svg">
  <g transform="translate(0 -271.86)" id="logo">
    <g transform="rotate(.50224 -37103 -21039)">
      <path class="dsj24-logo" d="m194.84-40.515-0.13987 0.33709c-0.0769 0.1854-0.33332 0.80587-0.56973 1.3788-0.40569 0.98314-0.7529 1.7974-0.77769 1.8239-0.0165 0.01757-0.45366-0.22449-0.45326-0.25097 9.6e-4 -0.04512 0.33414-0.8802 0.728-1.8231 0.82867-1.9838 1.0456-2.5075 1.414-3.414 0.6267-1.542 0.86382-2.1202 1.2893-3.1434l0.41038-0.99623 0.0904-0.18633 0.11786-0.03549 0.11787-0.0355 0.27016 0.136 0.065 0.22229-0.0974 0.20194-1.4975 3.473c-0.46245 1.0917-0.5125 1.2373-0.5125 1.2373m3.4598 2.5986 0.55085-0.38175 1.8416-1.3307c1.5356-1.1295 1.5943-1.1741 1.7316-1.3152 0.10624-0.10912 0.14676-0.14258 0.19423-0.16034 0.0967-0.03618 0.10542-0.03377 0.17278 0.04735l0.12792 0.16098 1e-3 0.10456 1e-3 0.10456-0.13991 0.14453c-0.11575 0.11957-0.20962 0.19707-0.54341 0.4487l-2.6794 1.9605c-0.24 0.16612-1.3079 0.90985-2.3731 1.6527-1.687 1.1765-2.6814 1.8587-2.7101 1.859-5e-3 7e-5 -0.14586-0.13219-0.23184-0.18686l2e-3 -3.98e-4c-0.0927-0.05897-0.15686-0.10774-0.15772-0.1199-2e-3 -0.02504 0.4053-0.32083 1.4918-1.0841 1.1434-0.8032 1.5528-1.0915 1.6017-1.1281m-0.10465-0.09641c-0.0595-0.16355-0.10585-0.28566-0.0608-0.51936l0.0389-0.01885 0.0388-0.01885 0.018-0.77133 0.12356-0.55058c0.0806-0.35923 0.13944-0.59355 0.16927-0.67423 0.03-0.08122 0.0534-0.1746 0.0681-0.27209 0.0388-0.25687 0.21376-0.94017 0.31945-1.2475 0.0813-0.23655 0.0942-0.28473 0.091-0.3413-2e-3 -0.03623-0.01-0.07206-0.0168-0.07964-0.0133-0.01396-0.16363-0.04893-0.22182-0.05159-0.0231-9.69e-4 -0.0822 0.03799-0.21818 0.14402-0.10256 0.08-0.38124 0.29262-0.6193 0.47248-0.32746 0.24741-0.47383 0.36664-0.6013 0.48982-0.12298 0.11886-0.27987 0.24762-0.58102 0.47692-0.40765 0.31035-0.91227 0.66887-1.0194 0.72427l-0.0553 0.02855 0.4548-1.0748s0.10064-0.06176 0.34996-0.29102c0.12196-0.11215 0.25497-0.22677 0.29558-0.25472 0.17683-0.12173 0.21435-0.15475 0.32964-0.2901 0.067-0.07867 0.1346-0.15366 0.15021-0.16665 0.0156-0.01299 0.22097-0.22131 0.45633-0.46295 0.45564-0.4678 0.78207-0.77375 0.94795-0.88848 0.056-0.03874 0.16683-0.13026 0.24631-0.20342 0.11852-0.1091 0.17128-0.17008 0.29357-0.33933 0.13933-0.19282 0.43433-0.63746 0.45317-0.68302 0.0147-0.0354-7e-3 -0.02329-0.12659 0.07355-0.0645 0.05189-0.12455 0.09417-0.1334 0.09395-0.0421-1e-3 -0.21503 0.13583-0.52241 0.41351-0.18502 0.16713-0.41359 0.36692-0.50796 0.44398-0.15023 0.12268-0.18415 0.15746-0.27273 0.27972-0.0557 0.07679-0.10773 0.14461-0.11579 0.15072-0.0309 0.02338-0.22216 0.09479-0.23723 0.08857-0.0312-0.01294-0.0322-0.06809-1e-3 -0.09912 0.0158-0.01594 0.0254-0.03241 0.0213-0.03661-4e-3 -0.0042-0.0584 0.0081-0.12101 0.02728l-0.11373 0.03494-0.1158-0.11862 0.011-0.1275c0.0126-0.14988 5e-3 -0.13906 0.18753-0.23141 0.12271-0.06183 0.13143-0.06424 0.26923-0.07466l0.14239-0.01067 0.1222-0.16242c0.0672-0.08932 0.25914-0.32392 0.42649-0.52132 0.2623-0.30939 0.31933-0.37001 0.4134-0.43943 0.06-0.04429 0.2579-0.19273 0.43977-0.32986l0.33067-0.24934 0.43544-0.0806 0.26526 0.14286c0.14588 0.07856 0.27581 0.14313 0.28872 0.14346 0.013 3.32e-4 0.0604-0.01283 0.10569-0.02924 0.0654-0.02374 0.0943-0.04313 0.14116-0.09469 0.0551-0.06065 0.0581-0.06698 0.0446-0.09773-8e-3 -0.01809-0.0153-0.0959-0.0166-0.1729l-2e-3 -0.14001 0.0618-0.10467c0.058-0.09837 0.0691-0.1097 0.18462-0.18838 0.12621-0.08604 0.25442-0.13833 0.33406-0.13629 0.0217 6.01e-4 0.0806 0.01 0.13108 0.02102 0.0808 0.01764 0.10138 0.02811 0.1737 0.08889 0.11048 0.0929 0.17319 0.17307 0.20167 0.25785 0.023 0.06826 0.023 0.07602 2e-3 0.23194l-0.021 0.1613-0.0687 0.10777c-0.0666 0.10454-0.0729 0.11048-0.21068 0.19773-0.0781 0.04948-0.15135 0.09004-0.16283 0.09015-0.0115 1.09e-4 -0.0393 0.01512-0.0618 0.03338-0.0225 0.01825-0.0758 0.05831-0.11842 0.08903-0.0757 0.05448-0.14007 0.12736-0.1409 0.15952-2.2e-4 0.0088 0.0867 0.11093 0.19314 0.22694l0.19355 0.21092 2e-3 0.23201 2e-3 0.23202-0.23793 0.42863c-0.13086 0.23575-0.28112 0.4905-0.33392 0.56613-0.20358 0.2916-0.47253 0.64517-0.59478 0.78191l-0.12764 0.14277 4e-3 0.11663c2e-3 0.06489-6e-3 0.18597-0.0166 0.27291-0.0185 0.14125-0.0234 0.1586-0.0511 0.18034-0.0169 0.01322-0.0566 0.04462-0.0884 0.06978-0.053 0.04197-0.0623 0.04508-0.11342 0.03801-0.0307-0.0042-0.0631-0.01553-0.0722-0.02507-0.0102-0.0095-0.0216-0.06386-0.0278-0.12073-6e-3 -0.05686-0.0156-0.1083-0.0207-0.11432-5e-3 -6e-3 -0.0243 2.84e-4 -0.0429 0.01412-0.033 0.02468-0.0964 0.03262-0.10754 0.01348-4e-3 -0.0054-1e-3 -0.06365 4e-3 -0.12942l0.01-0.11961 0.12628-0.13392c0.1198-0.12704 0.12988-0.14186 0.19607-0.28836 0.0802-0.17744 0.38971-0.75361 0.48588-0.90442 0.0366-0.05745 0.0799-0.14647 0.0991-0.20435 0.0188-0.05642 0.0489-0.12625 0.0668-0.1552 0.0179-0.02895 0.0267-0.05063 0.0197-0.04818-7e-3 0.0025-0.15573 0.14318-0.33045 0.31274l-0.31766 0.30829-0.11496 0.29485c-0.0632 0.16217-0.13072 0.3277-0.14999 0.36785-0.0192 0.04015-0.0541 0.14766-0.0777 0.23892-0.0354 0.13738-0.0874 0.27102-0.3028 0.77673-0.1431 0.33594-0.28291 0.67868-0.31069 0.76163-0.0279 0.08296-0.074 0.20414-0.10255 0.2693-0.0489 0.11108-0.0589 0.15468-0.16092 0.69969-0.069 0.29523-0.11363 0.55888-0.0735 0.81631 0.21224 0.05199 0.27683 0.01557 0.39364 0.06926m6.0169 0.73809q-0.10159 8.9e-4 -0.17835-0.06194-0.0767-0.06283-0.0779-0.18982l-2e-3 -0.21589q-1e-3 -0.127 0.049-0.20364 0.0627-0.08945 0.21422-0.19238l3.6479-2.5721-3.6924-2.5077q-0.15328-0.10026-0.21745-0.1759-0.0516-0.08845-0.0527-0.21545l-2e-3 -0.21589q-1e-3 -0.127 0.0745-0.19116 0.0756-0.06417 0.17723-0.06506 0.0889-7.79e-4 0.19105 0.06183 0.10205 0.04991 0.15318 0.08756l3.7691 2.5579q0.20442 0.13791 0.28184 0.27694 0.09 0.12622 0.0916 0.30401l1e-3 0.15239q1e-3 0.16509-0.0862 0.30557-0.075 0.14036-0.27694 0.28184l-3.7236 2.6235q-0.0505 0.03854-0.1515 0.10293-0.10115 0.05169-0.19005 0.05247zm-12.987 0.11384q-0.0889 7.79e-4 -0.19094-0.04913-0.0894-0.06272-0.15328-0.10026l-3.7691-2.5579q-0.20441-0.13791-0.29453-0.27683-0.0774-0.13903-0.0789-0.30412l-1e-3 -0.15239q-2e-3 -0.17779 0.0735-0.30546 0.0877-0.14047 0.28964-0.28195l3.7236-2.6235q0.0632-0.03866 0.15162-0.09023 0.10104-0.06439 0.18993-0.06517 0.1016-8.9e-4 0.17835 0.06194 0.0768 0.06283 0.0779 0.18982l2e-3 0.21589q1e-3 0.127-0.0616 0.21645-0.0501 0.07664-0.20164 0.17957l-3.6479 2.5721 3.6924 2.5077q0.15329 0.10026 0.20486 0.18871 0.0642 0.07564 0.0653 0.20264l2e-3 0.21589q1e-3 0.127-0.0745 0.19116-0.0756 0.06416-0.17724 0.06506z"/>
    </g>
  </g>
</svg>
